<svg width="24" height="24" viewBox="0 0 24 24" fill="none" xmlns="http://www.w3.org/2000/svg">
<path fill-rule="evenodd" clip-rule="evenodd" d="M9.75 6C9.75 5.86786 9.81844 5.56987 10.1096 5.30032C10.3894 5.04117 10.9411 4.75 12 4.75C13.0589 4.75 13.6106 5.04117 13.8904 5.30032C14.1816 5.56987 14.25 5.86786 14.25 6V7.50247H9.75V6ZM8.25 6C8.25 5.46548 8.48156 4.76346 9.09044 4.19968C9.71056 3.6255 10.6589 3.25 12 3.25C13.3411 3.25 14.2894 3.6255 14.9096 4.19968C15.5184 4.76346 15.75 5.46548 15.75 6V7.50247H18.0703C18.4845 7.50247 18.8203 7.83826 18.8203 8.25247V17.7094C18.8203 18.2686 18.5963 18.8037 18.1996 19.1972C17.8031 19.5905 17.2665 19.8104 16.7083 19.8104H7.17448C6.6163 19.8104 6.07977 19.5905 5.68324 19.1972C5.2865 18.8037 5.0625 18.2686 5.0625 17.7094V8.25247C5.0625 7.83826 5.39829 7.50247 5.8125 7.50247H8.25V6ZM8.25 11V9.00247H6.5625V17.7094C6.5625 17.8668 6.62549 18.0191 6.73959 18.1322C6.8539 18.2456 7.01022 18.3104 7.17448 18.3104H16.7083C16.8726 18.3104 17.0289 18.2456 17.1432 18.1322C17.2573 18.0191 17.3203 17.8668 17.3203 17.7094V9.00247H15.75V11H14.25V9.00247H9.75V11H8.25Z" fill="#282828"/>
</svg>
