<svg width="24" height="24" viewBox="0 0 24 24" fill="none" xmlns="http://www.w3.org/2000/svg">
<path fill-rule="evenodd" clip-rule="evenodd" d="M2.0874 3.61194C2.0874 3.19772 2.42319 2.86194 2.8374 2.86194H6.10114C6.45861 2.86194 6.7664 3.11423 6.83655 3.46475L7.53244 6.94161H20.788C21.0115 6.94161 21.2233 7.0413 21.3658 7.21352C21.5083 7.38575 21.5665 7.61254 21.5247 7.8321L20.2192 14.6778L20.2181 14.6834L20.2181 14.6834C20.1092 15.2317 19.8109 15.7242 19.3754 16.0748C18.942 16.4237 18.4002 16.6098 17.8441 16.6009H9.92624C9.37008 16.6098 8.82827 16.4237 8.39485 16.0748C7.95954 15.7243 7.66131 15.232 7.55232 14.6839L7.55221 14.6834L6.18893 7.87208C6.18364 7.85068 6.17927 7.82891 6.17587 7.80683L5.48638 4.36194H2.8374C2.42319 4.36194 2.0874 4.02615 2.0874 3.61194ZM7.83267 8.44161L9.02326 14.3901L9.02347 14.3912C9.06379 14.5942 9.17423 14.7765 9.33545 14.9063C9.49668 15.0361 9.69841 15.1051 9.90534 15.1011L9.91971 15.1009H17.8506L17.865 15.1011C18.0719 15.1051 18.2736 15.0361 18.4348 14.9063C18.5954 14.777 18.7057 14.5956 18.7464 14.3935L18.7468 14.3912L19.8814 8.44161H7.83267ZM17.5902 19.3125C17.663 19.3125 17.722 19.2535 17.722 19.1806C17.722 19.1078 17.663 19.0488 17.5902 19.0488C17.5173 19.0488 17.4583 19.1078 17.4583 19.1806C17.4583 19.2535 17.5173 19.3125 17.5902 19.3125ZM17.5902 20.8125C18.4914 20.8125 19.222 20.0819 19.222 19.1806C19.222 18.2794 18.4914 17.5488 17.5902 17.5488C16.6889 17.5488 15.9583 18.2794 15.9583 19.1806C15.9583 20.0819 16.6889 20.8125 17.5902 20.8125ZM10.2467 19.1806C10.2467 19.2535 10.1877 19.3125 10.1149 19.3125C10.042 19.3125 9.983 19.2535 9.983 19.1806C9.983 19.1078 10.042 19.0488 10.1149 19.0488C10.1877 19.0488 10.2467 19.1078 10.2467 19.1806ZM11.7467 19.1806C11.7467 20.0819 11.0161 20.8125 10.1149 20.8125C9.21361 20.8125 8.483 20.0819 8.483 19.1806C8.483 18.2794 9.21361 17.5488 10.1149 17.5488C11.0161 17.5488 11.7467 18.2794 11.7467 19.1806Z" fill="#282828"/>
</svg>
