<svg width="24" height="24" viewBox="0 0 24 24" fill="none" xmlns="http://www.w3.org/2000/svg">
<path fill-rule="evenodd" clip-rule="evenodd" d="M5 4.25024C3.48122 4.25024 2.25 5.48146 2.25 7.00024V13.0002C2.25 14.519 3.48122 15.7502 5 15.7502H6.25V16.999C6.25 18.5183 7.48169 19.75 9.00105 19.75H18.999C20.5183 19.75 21.75 18.5183 21.75 16.999V11.001C21.75 9.48169 20.5183 8.25 18.999 8.25H17.75V7.00024C17.75 5.48146 16.5188 4.25024 15 4.25024H5ZM16.9807 9.75C16.9871 9.75016 16.9935 9.75024 17 9.75024C17.0065 9.75024 17.0129 9.75016 17.0193 9.75H18.999C19.6899 9.75 20.25 10.3101 20.25 11.001V16.999C20.25 17.6899 19.6899 18.25 18.999 18.25H9.00105C8.31011 18.25 7.75 17.6899 7.75 16.999V15.0002V11.001C7.75 10.3101 8.31011 9.75 9.00105 9.75H16.9807ZM16.25 8.25V7.00024C16.25 6.30989 15.6904 5.75024 15 5.75024H5C4.30964 5.75024 3.75 6.30989 3.75 7.00024V13.0002C3.75 13.6906 4.30964 14.2502 5 14.2502H6.25V11.001C6.25 9.48169 7.48169 8.25 9.00105 8.25H16.25ZM14 12.75C13.3096 12.75 12.75 13.3096 12.75 14C12.75 14.6904 13.3096 15.25 14 15.25C14.6904 15.25 15.25 14.6904 15.25 14C15.25 13.3096 14.6904 12.75 14 12.75ZM11.25 14C11.25 12.4812 12.4812 11.25 14 11.25C15.5188 11.25 16.75 12.4812 16.75 14C16.75 15.5188 15.5188 16.75 14 16.75C12.4812 16.75 11.25 15.5188 11.25 14Z" fill="#282828"/>
</svg>
