<svg width="24" height="24" viewBox="0 0 24 24" fill="none" xmlns="http://www.w3.org/2000/svg">
<path fill-rule="evenodd" clip-rule="evenodd" d="M6.83375 6.33792C8.39699 5.22888 10.3729 4.65464 12.3937 4.73658C14.4145 4.81851 16.3199 5.55 17.7586 6.77714C19.1954 8.00263 20.0647 9.63339 20.2337 11.3581C20.4025 13.0815 19.8637 14.8124 18.6951 16.23C17.5243 17.6505 15.798 18.6609 13.8261 19.0516C11.854 19.4423 9.79173 19.1817 8.02756 18.3253C7.8774 18.2524 7.7072 18.2316 7.54393 18.2664L4.12604 18.9936L5.01153 16.3371C5.08526 16.1159 5.05192 15.873 4.92132 15.6799C3.90663 14.1791 3.54636 12.4153 3.89132 10.711C4.23676 9.00448 5.27209 7.44584 6.83375 6.33792ZM12.4545 3.23781C10.1176 3.14306 7.81198 3.80477 5.96581 5.11453C4.11806 6.42541 2.84816 8.30381 2.42114 10.4135C2.01812 12.4046 2.39737 14.449 3.47483 16.2038L2.2885 19.7628C2.20344 20.018 2.26155 20.2992 2.4408 20.4997C2.62006 20.7003 2.89299 20.7895 3.15609 20.7335L7.60953 19.786C9.61884 20.6985 11.9189 20.9586 14.1176 20.523C16.4033 20.0702 18.4453 18.8915 19.8526 17.1841C21.2622 15.474 21.9361 13.3512 21.7265 11.2118C21.5171 9.0736 20.4427 7.09505 18.732 5.63589C17.0232 4.17838 14.7914 3.33256 12.4545 3.23781ZM8.75001 12C8.75001 11.5858 8.41423 11.25 8.00001 11.25C7.5858 11.25 7.25001 11.5858 7.25001 12V12.01C7.25001 12.4242 7.5858 12.76 8.00001 12.76C8.41423 12.76 8.75001 12.4242 8.75001 12.01V12ZM12.75 12C12.75 11.5858 12.4142 11.25 12 11.25C11.5858 11.25 11.25 11.5858 11.25 12V12.01C11.25 12.4242 11.5858 12.76 12 12.76C12.4142 12.76 12.75 12.4242 12.75 12.01V12ZM16 11.25C16.4142 11.25 16.75 11.5858 16.75 12V12.01C16.75 12.4242 16.4142 12.76 16 12.76C15.5858 12.76 15.25 12.4242 15.25 12.01V12C15.25 11.5858 15.5858 11.25 16 11.25Z" fill="#282828"/>
</svg>
