<svg width="24" height="24" viewBox="0 0 24 24" fill="none" xmlns="http://www.w3.org/2000/svg">
<path fill-rule="evenodd" clip-rule="evenodd" d="M11.896 3.698C7.33965 3.698 3.646 7.39165 3.646 11.948C3.646 16.5043 7.33965 20.198 11.896 20.198C16.4523 20.198 20.146 16.5043 20.146 11.948C20.146 7.39165 16.4523 3.698 11.896 3.698ZM2.146 11.948C2.146 6.56322 6.51122 2.198 11.896 2.198C17.2808 2.198 21.646 6.56322 21.646 11.948C21.646 17.3328 17.2808 21.698 11.896 21.698C6.51122 21.698 2.146 17.3328 2.146 11.948ZM12.8844 7.19803C13.3782 7.18386 13.8668 7.30297 14.2988 7.54297C14.7348 7.78517 15.0967 8.14138 15.3458 8.57346C15.5526 8.93231 15.4294 9.39092 15.0706 9.5978C14.7117 9.80467 14.2531 9.68146 14.0462 9.32261C13.933 9.12621 13.7685 8.9643 13.5703 8.8542C13.3722 8.74411 13.1478 8.68998 12.9212 8.69761C12.9128 8.69789 12.9044 8.69803 12.896 8.69803H10.896C10.5645 8.69803 10.2465 8.82973 10.0121 9.06415C9.77769 9.29857 9.646 9.61651 9.646 9.94803C9.646 10.2796 9.77769 10.5975 10.0121 10.8319C10.2465 11.0663 10.5645 11.198 10.896 11.198H12.896C13.6253 11.198 14.3248 11.4878 14.8405 12.0035C15.3563 12.5192 15.646 13.2187 15.646 13.948C15.646 14.6774 15.3563 15.3769 14.8405 15.8926C14.3248 16.4083 13.6253 16.698 12.896 16.698H12.646V17.948C12.646 18.3622 12.3102 18.698 11.896 18.698C11.4818 18.698 11.146 18.3622 11.146 17.948V16.698H10.9076C10.4138 16.7122 9.92518 16.5931 9.49318 16.3531C9.05721 16.1109 8.69532 15.7547 8.44623 15.3226C8.23936 14.9638 8.36257 14.5051 8.72142 14.2983C9.08028 14.0914 9.53889 14.2146 9.74576 14.5735C9.85898 14.7699 10.0235 14.9318 10.2216 15.0419C10.4198 15.152 10.6442 15.2061 10.8708 15.1985C10.8792 15.1982 10.8876 15.198 10.896 15.198H11.8887C11.8912 15.198 11.8936 15.198 11.896 15.198C11.8984 15.198 11.9008 15.198 11.9032 15.198H12.896C13.2275 15.198 13.5455 15.0663 13.7799 14.8319C14.0143 14.5975 14.146 14.2796 14.146 13.948C14.146 13.6165 14.0143 13.2986 13.7799 13.0641C13.5455 12.8297 13.2275 12.698 12.896 12.698H10.896C10.1666 12.698 9.46718 12.4083 8.95145 11.8926C8.43573 11.3769 8.146 10.6774 8.146 9.94803C8.146 9.21869 8.43573 8.51921 8.95145 8.00349C9.46718 7.48776 10.1666 7.19803 10.896 7.19803H11.146V5.948C11.146 5.53378 11.4818 5.198 11.896 5.198C12.3102 5.198 12.646 5.53378 12.646 5.948V7.19803H12.8844Z" fill="#282828"/>
</svg>
