<svg width="24" height="24" viewBox="0 0 24 24" fill="none" xmlns="http://www.w3.org/2000/svg">
<path fill-rule="evenodd" clip-rule="evenodd" d="M3.59375 7.948C3.59375 6.70536 4.60111 5.698 5.84375 5.698H17.8438C19.0864 5.698 20.0938 6.70536 20.0938 7.948V9.198H3.59375V7.948ZM2.09375 9.948V7.948C2.09375 5.87693 3.77268 4.198 5.84375 4.198H17.8438C19.9148 4.198 21.5938 5.87693 21.5938 7.948V9.948V15.948C21.5938 18.0191 19.9148 19.698 17.8438 19.698H5.84375C3.77268 19.698 2.09375 18.0191 2.09375 15.948V9.948ZM20.0938 10.698V15.948C20.0938 17.1906 19.0864 18.198 17.8438 18.198H5.84375C4.60111 18.198 3.59375 17.1906 3.59375 15.948V10.698H20.0938ZM6.09375 14.948C6.09375 14.5338 6.42954 14.198 6.84375 14.198H6.85375C7.26796 14.198 7.60375 14.5338 7.60375 14.948C7.60375 15.3622 7.26796 15.698 6.85375 15.698H6.84375C6.42954 15.698 6.09375 15.3622 6.09375 14.948ZM10.8438 14.198C10.4295 14.198 10.0938 14.5338 10.0938 14.948C10.0938 15.3622 10.4295 15.698 10.8438 15.698H12.8438C13.258 15.698 13.5938 15.3622 13.5938 14.948C13.5938 14.5338 13.258 14.198 12.8438 14.198H10.8438Z" fill="#282828"/>
</svg>
