<svg width="24" height="24" viewBox="0 0 24 24" fill="none" xmlns="http://www.w3.org/2000/svg">
<path fill-rule="evenodd" clip-rule="evenodd" d="M3.49023 11.948C3.49023 7.39165 7.18389 3.698 11.7402 3.698C16.2966 3.698 19.9902 7.39165 19.9902 11.948C19.9902 16.5043 16.2966 20.198 11.7402 20.198C7.18389 20.198 3.49023 16.5043 3.49023 11.948ZM11.7402 2.198C6.35546 2.198 1.99023 6.56322 1.99023 11.948C1.99023 17.3328 6.35546 21.698 11.7402 21.698C17.125 21.698 21.4902 17.3328 21.4902 11.948C21.4902 6.56322 17.125 2.198 11.7402 2.198ZM11 9.5C11 10.3284 10.3284 11 9.5 11C8.67157 11 8 10.3284 8 9.5C8 8.67157 8.67157 8 9.5 8C10.3284 8 11 8.67157 11 9.5ZM15.2706 9.47833C15.5635 9.18543 15.5635 8.71056 15.2706 8.41767C14.9777 8.12477 14.5028 8.12477 14.2099 8.41767L8.2099 14.4177C7.91701 14.7106 7.91701 15.1854 8.2099 15.4783C8.5028 15.7712 8.97767 15.7712 9.27056 15.4783L15.2706 9.47833ZM14.5 16C15.3284 16 16 15.3284 16 14.5C16 13.6716 15.3284 13 14.5 13C13.6716 13 13 13.6716 13 14.5C13 15.3284 13.6716 16 14.5 16Z" fill="#282828"/>
</svg>
