<svg width="24" height="24" viewBox="0 0 24 24" fill="none" xmlns="http://www.w3.org/2000/svg">
<path fill-rule="evenodd" clip-rule="evenodd" d="M11.5272 3.67621C12.8015 3.67535 14.0536 4.01038 15.1572 4.64754C15.5159 4.85465 15.9746 4.73174 16.1817 4.37303C16.3888 4.01431 16.2659 3.55561 15.9072 3.34851C14.5752 2.57951 13.0642 2.17517 11.5262 2.17621C9.98822 2.17725 8.4777 2.58365 7.14682 3.35445C5.81595 4.12525 4.71175 5.23321 3.94548 6.56671C3.1794 7.89989 2.77815 9.41141 2.78216 10.949V11.9357C2.70231 14.3787 3.0167 16.8187 3.71326 19.1617C3.83129 19.5588 4.24884 19.785 4.64588 19.6669C5.04292 19.5489 5.2691 19.1313 5.15107 18.7343C4.49932 16.542 4.20577 14.2588 4.28175 11.9729C4.28202 11.9646 4.28216 11.9563 4.28216 11.948L4.28217 10.948L4.28216 10.946C4.27869 9.67166 4.61115 8.41894 5.24605 7.31405C5.88096 6.20916 6.79586 5.29113 7.89859 4.65246C9.00131 4.0138 10.2529 3.67707 11.5272 3.67621ZM18.0451 6.30559C18.3999 6.09182 18.8608 6.20615 19.0745 6.56095C20.0566 8.1909 20.4803 10.0962 20.2821 11.9881V12.948V12.9488C20.2811 13.8701 20.5225 14.7754 20.9821 15.5738C21.1888 15.9328 21.0653 16.3914 20.7063 16.598C20.3473 16.8046 19.8888 16.6811 19.6821 16.3222C19.0913 15.2957 18.7809 14.1319 18.7821 12.9476V12.948H19.5321L18.7821 12.9472V11.948C18.7821 11.9207 18.7836 11.8934 18.7866 11.8663C18.9596 10.2875 18.6094 8.69549 17.7897 7.33505C17.576 6.98025 17.6903 6.51935 18.0451 6.30559ZM11.5322 7.698C10.6703 7.698 9.84362 8.04041 9.23413 8.6499C8.62464 9.25939 8.28223 10.086 8.28223 10.948C8.28223 11.3622 7.94644 11.698 7.53223 11.698C7.11801 11.698 6.78223 11.3622 6.78223 10.948C6.78223 9.68822 7.28267 8.48004 8.17347 7.58924C9.06427 6.69844 10.2724 6.198 11.5322 6.198C12.792 6.198 14.0002 6.69844 14.891 7.58924C15.7818 8.48004 16.2822 9.68822 16.2822 10.948V11.948C16.2822 13.9494 16.9314 15.8969 18.1322 17.498C18.3808 17.8294 18.3136 18.2995 17.9822 18.548C17.6509 18.7965 17.1808 18.7294 16.9322 18.398C15.5366 16.5372 14.7822 14.274 14.7822 11.948V10.948C14.7822 10.086 14.4398 9.25939 13.8303 8.6499C13.2208 8.04041 12.3942 7.698 11.5322 7.698ZM12.2822 10.948C12.2822 10.5338 11.9464 10.198 11.5322 10.198C11.118 10.198 10.7822 10.5338 10.7822 10.948L10.7822 12.9472L11.5322 12.948H10.7822V12.9476C10.779 15.96 11.6981 18.9012 13.4162 21.3757C13.6524 21.716 14.1197 21.8003 14.46 21.5641C14.8002 21.3278 14.8845 20.8605 14.6483 20.5203C13.1049 18.2973 12.2792 15.6551 12.2822 12.9488V12.948V10.948ZM7.445 14.2031C7.85641 14.1549 8.22897 14.4494 8.27714 14.8608C8.51164 16.8635 9.09548 18.8097 10.0021 20.6108C10.1884 20.9808 10.0394 21.4317 9.66945 21.6179C9.29947 21.8042 8.84856 21.6552 8.66232 21.2852C7.67682 19.3275 7.04221 17.2121 6.78732 15.0352C6.73914 14.6238 7.0336 14.2513 7.445 14.2031Z" fill="#282828"/>
</svg>
