<svg width="24" height="24" viewBox="0 0 24 24" fill="none" xmlns="http://www.w3.org/2000/svg">
<path fill-rule="evenodd" clip-rule="evenodd" d="M12.1854 3.5648C12.1237 3.56347 12.0618 3.5628 11.9998 3.5628C11.9378 3.5628 11.876 3.56347 11.8144 3.5648C10.8971 5.09865 10.2507 6.74503 9.87523 8.43747H14.1245C13.7491 6.74504 13.1027 5.09866 12.1854 3.5648ZM14.3334 9.56306H9.66637C9.42447 11.1785 9.4245 12.822 9.66645 14.4375H14.3333C14.5753 12.822 14.5753 11.1785 14.3334 9.56306ZM15.4707 14.4375C15.6969 12.8209 15.697 11.1797 15.4707 9.56306H20.0797C20.3121 10.3346 20.437 11.1527 20.437 12C20.437 12.8475 20.3121 13.6658 20.0796 14.4375H15.4707ZM14.1244 15.5631H9.87535C10.2508 17.2553 10.8972 18.9015 11.8144 20.4352C11.876 20.4365 11.9378 20.4372 11.9998 20.4372C12.0618 20.4372 12.1237 20.4365 12.1854 20.4352C13.1026 18.9015 13.7489 17.2553 14.1244 15.5631ZM13.5591 20.2934C14.3657 18.7884 14.9379 17.1944 15.2756 15.5631H19.65C18.5181 17.9892 16.2661 19.7876 13.5591 20.2934ZM12.4025 21.5545C12.4877 21.5694 12.5745 21.5642 12.6563 21.5406C17.6315 21.2033 21.5626 17.0607 21.5626 12C21.5626 6.93926 17.6315 2.79669 12.6563 2.45939C12.5745 2.43576 12.4877 2.43062 12.4025 2.44553C12.269 2.44 12.1347 2.43721 11.9998 2.43721C11.865 2.43721 11.7307 2.44 11.5972 2.44553C11.5121 2.43062 11.4253 2.43577 11.3436 2.45937C6.36827 2.79657 2.43701 6.93919 2.43701 12C2.43701 17.0608 6.36827 21.2034 11.3436 21.5406C11.4253 21.5642 11.5121 21.5694 11.5972 21.5545C11.7307 21.56 11.8649 21.5628 11.9998 21.5628C12.1347 21.5628 12.269 21.56 12.4025 21.5545ZM13.5591 3.7066C16.2663 4.21243 18.5184 6.01112 19.6502 8.43747H15.2757C14.938 6.80597 14.3658 5.21175 13.5591 3.7066ZM10.4407 20.2934C9.63405 18.7884 9.06187 17.1944 8.72417 15.5631H4.34964C5.48154 17.9892 7.73358 19.7877 10.4407 20.2934ZM8.52911 14.4375C8.30282 12.8209 8.3028 11.1797 8.52903 9.56306H3.91988C3.68749 10.3346 3.5626 11.1527 3.5626 12C3.5626 12.8475 3.68755 13.6658 3.92003 14.4375H8.52911ZM8.72406 8.43747C9.06175 6.80595 9.63396 5.21172 10.4407 3.70656C7.73339 4.21236 5.48122 6.01106 4.3494 8.43747H8.72406Z" fill="#282828"/>
</svg>
