<svg width="24" height="24" viewBox="0 0 24 24" fill="none" xmlns="http://www.w3.org/2000/svg">
<path fill-rule="evenodd" clip-rule="evenodd" d="M12.3765 3.698C7.82012 3.698 4.12646 7.39165 4.12646 11.948C4.12646 16.5043 7.82012 20.198 12.3765 20.198C16.9328 20.198 20.6265 16.5043 20.6265 11.948C20.6265 7.39165 16.9328 3.698 12.3765 3.698ZM2.62646 11.948C2.62646 6.56322 6.99169 2.198 12.3765 2.198C17.7612 2.198 22.1265 6.56322 22.1265 11.948C22.1265 17.3328 17.7612 21.698 12.3765 21.698C6.99169 21.698 2.62646 17.3328 2.62646 11.948ZM12.3765 16.198C12.7907 16.198 13.1265 16.5338 13.1265 16.948V16.958C13.1265 17.3722 12.7907 17.708 12.3765 17.708C11.9623 17.708 11.6265 17.3722 11.6265 16.958V16.948C11.6265 16.5338 11.9623 16.198 12.3765 16.198ZM12.4571 6.16957C11.9386 6.16813 11.4268 6.28707 10.9621 6.51702C10.4974 6.74697 10.0924 7.08165 9.77897 7.49472C9.52861 7.82471 9.59316 8.29517 9.92314 8.54554C10.2531 8.7959 10.7236 8.73135 10.974 8.40136C11.147 8.17325 11.3707 7.98842 11.6273 7.86144C11.884 7.73445 12.1666 7.66877 12.4529 7.66956C12.7392 7.67036 13.0215 7.73761 13.2774 7.86601C13.5333 7.99442 13.756 8.18049 13.9278 8.40956C14.0996 8.63863 14.2159 8.90445 14.2675 9.18609C14.3191 9.46774 14.3046 9.75752 14.2252 10.0326C14.1458 10.3077 14.0036 10.5606 13.8098 10.7715C13.6179 10.9802 13.3807 11.1421 13.1163 11.2445C12.6611 11.4074 12.2703 11.7126 12.0019 12.115C11.7314 12.5208 11.6001 13.0036 11.6277 13.4905C11.6511 13.9041 12.0054 14.2203 12.4189 14.1968C12.8325 14.1734 13.1487 13.8191 13.1253 13.4056C13.1161 13.2433 13.1598 13.0823 13.25 12.9471C13.3402 12.8118 13.4719 12.7095 13.6253 12.6556L13.6444 12.6486C14.1287 12.4634 14.5633 12.1683 14.9142 11.7865C15.2651 11.4048 15.5226 10.9468 15.6664 10.4486C15.8102 9.95047 15.8364 9.42573 15.7429 8.91572C15.6495 8.40571 15.4389 7.92436 15.1278 7.50956C14.8167 7.09475 14.4135 6.75783 13.9501 6.5253C13.4867 6.29278 12.9756 6.17101 12.4571 6.16957Z" fill="#282828"/>
</svg>
