<svg width="24" height="24" viewBox="0 0 24 24" fill="none" xmlns="http://www.w3.org/2000/svg">
<path fill-rule="evenodd" clip-rule="evenodd" d="M8.32422 4.698C6.52929 4.698 5.07422 6.15307 5.07422 7.948V15.948C5.07422 17.7429 6.52929 19.198 8.32422 19.198H16.3242C18.1191 19.198 19.5742 17.7429 19.5742 15.948V7.948C19.5742 6.15307 18.1191 4.698 16.3242 4.698H8.32422ZM3.57422 7.948C3.57422 5.32465 5.70087 3.198 8.32422 3.198H16.3242C18.9476 3.198 21.0742 5.32465 21.0742 7.948V15.948C21.0742 18.5714 18.9476 20.698 16.3242 20.698H8.32422C5.70087 20.698 3.57422 18.5714 3.57422 15.948V7.948ZM12.3242 9.698C11.0816 9.698 10.0742 10.7054 10.0742 11.948C10.0742 13.1906 11.0816 14.198 12.3242 14.198C13.5669 14.198 14.5742 13.1906 14.5742 11.948C14.5742 10.7054 13.5669 9.698 12.3242 9.698ZM8.57422 11.948C8.57422 9.87693 10.2532 8.198 12.3242 8.198C14.3953 8.198 16.0742 9.87693 16.0742 11.948C16.0742 14.0191 14.3953 15.698 12.3242 15.698C10.2532 15.698 8.57422 14.0191 8.57422 11.948ZM17.5742 7.448C17.5742 7.03378 17.2384 6.698 16.8242 6.698C16.41 6.698 16.0742 7.03378 16.0742 7.448V7.449C16.0742 7.86321 16.41 8.199 16.8242 8.199C17.2384 8.199 17.5742 7.86321 17.5742 7.449V7.448Z" fill="#282828"/>
</svg>
