<svg width="24" height="24" viewBox="0 0 24 24" fill="none" xmlns="http://www.w3.org/2000/svg">
<path fill-rule="evenodd" clip-rule="evenodd" d="M6 4.75C5.30964 4.75 4.75 5.30964 4.75 6V18C4.75 18.6904 5.30964 19.25 6 19.25H18C18.6904 19.25 19.25 18.6904 19.25 18V6C19.25 5.30964 18.6904 4.75 18 4.75H6ZM3.25 6C3.25 4.48122 4.48122 3.25 6 3.25H18C19.5188 3.25 20.75 4.48122 20.75 6V18C20.75 19.5188 19.5188 20.75 18 20.75H6C4.48122 20.75 3.25 19.5188 3.25 18V6ZM8 10.25C8.41421 10.25 8.75 10.5858 8.75 11V16C8.75 16.4142 8.41421 16.75 8 16.75C7.58579 16.75 7.25 16.4142 7.25 16V11C7.25 10.5858 7.58579 10.25 8 10.25ZM8.75 8C8.75 7.58579 8.41421 7.25 8 7.25C7.58579 7.25 7.25 7.58579 7.25 8V8.01C7.25 8.42421 7.58579 8.76 8 8.76C8.41421 8.76 8.75 8.42421 8.75 8.01V8ZM12.6405 10.6096C12.5087 10.3939 12.2712 10.25 12 10.25C11.5858 10.25 11.25 10.5858 11.25 11V13V16C11.25 16.4142 11.5858 16.75 12 16.75C12.4142 16.75 12.75 16.4142 12.75 16V13C12.75 12.6685 12.8817 12.3505 13.1161 12.1161C13.3505 11.8817 13.6685 11.75 14 11.75C14.3315 11.75 14.6495 11.8817 14.8839 12.1161C15.1183 12.3505 15.25 12.6685 15.25 13V16C15.25 16.4142 15.5858 16.75 16 16.75C16.4142 16.75 16.75 16.4142 16.75 16V13C16.75 12.2707 16.4603 11.5712 15.9445 11.0555C15.4288 10.5397 14.7293 10.25 14 10.25C13.5191 10.25 13.0513 10.3759 12.6405 10.6096Z" fill="#282828"/>
</svg>
