<svg width="24" height="24" viewBox="0 0 24 24" fill="none" xmlns="http://www.w3.org/2000/svg">
<path fill-rule="evenodd" clip-rule="evenodd" d="M16.7202 3.16248C15.5836 3.16248 14.4936 3.61399 13.6899 4.41768L13.1899 4.91768C12.897 5.21057 12.897 5.68545 13.1899 5.97834C13.4828 6.27123 13.9577 6.27123 14.2505 5.97834L14.7505 5.47834C15.2729 4.95595 15.9814 4.66248 16.7202 4.66248C17.459 4.66248 18.1675 4.95595 18.6899 5.47834C19.2123 6.00073 19.5057 6.70924 19.5057 7.44801C19.5057 8.18678 19.2123 8.89529 18.6899 9.41768L14.6899 13.4177L14.6899 13.4177L14.6845 13.4231C14.4285 13.6844 14.1228 13.8921 13.7855 14.0338C13.4483 14.1755 13.0861 14.2485 12.7202 14.2485C12.3544 14.2485 11.9922 14.1755 11.6549 14.0338C11.3176 13.8921 11.012 13.6844 10.7559 13.4231C10.466 13.1273 9.99119 13.1224 9.69532 13.4123C9.39946 13.7022 9.39461 14.177 9.6845 14.4729C10.0802 14.8768 10.5525 15.1976 11.0738 15.4167C11.5951 15.6357 12.1548 15.7485 12.7202 15.7485C13.2856 15.7485 13.8454 15.6357 14.3666 15.4167C14.8867 15.1981 15.358 14.8783 15.7531 14.4757L19.7505 10.4783C20.5542 9.67465 21.0057 8.5846 21.0057 7.44801C21.0057 6.31142 20.5542 5.22137 19.7505 4.41768C18.9469 3.61399 17.8568 3.16248 16.7202 3.16248ZM11.7201 8.14752C11.1547 8.14752 10.595 8.26035 10.0737 8.47938C9.55366 8.6979 9.08234 9.01775 8.68721 9.42027L4.68977 13.4177C3.88608 14.2214 3.43457 15.3114 3.43457 16.448C3.43457 17.5846 3.88608 18.6747 4.68977 19.4784C5.49347 20.2821 6.58351 20.7336 7.7201 20.7336C8.8567 20.7336 9.94674 20.2821 10.7504 19.4784L11.2504 18.9784C11.5433 18.6855 11.5433 18.2106 11.2504 17.9177C10.9575 17.6248 10.4827 17.6248 10.1898 17.9177L9.68977 18.4177C9.16739 18.9401 8.45887 19.2336 7.7201 19.2336C6.98133 19.2336 6.27282 18.9401 5.75043 18.4177C5.22805 17.8953 4.93457 17.1868 4.93457 16.448C4.93457 15.7093 5.22805 15.0008 5.75043 14.4784L9.75043 10.4784L9.75046 10.4784L9.75582 10.4729C10.0119 10.2116 10.3175 10.004 10.6548 9.86226C10.9921 9.72053 11.3542 9.64752 11.7201 9.64752C12.086 9.64752 12.4481 9.72053 12.7854 9.86226C13.1227 10.004 13.4283 10.2116 13.6844 10.4729C13.9743 10.7688 14.4491 10.7736 14.745 10.4837C15.0409 10.1939 15.0457 9.71901 14.7558 9.42314C14.3601 9.01927 13.8878 8.69842 13.3665 8.47938C12.8453 8.26035 12.2855 8.14752 11.7201 8.14752Z" fill="#282828"/>
</svg>
