<svg width="24" height="24" viewBox="0 0 24 24" fill="none" xmlns="http://www.w3.org/2000/svg">
<path fill-rule="evenodd" clip-rule="evenodd" d="M9.87036 4.6499C10.4799 4.04041 11.3065 3.698 12.1685 3.698C13.0304 3.698 13.8571 4.04041 14.4666 4.6499C15.076 5.25939 15.4185 6.08604 15.4185 6.948V10.198H8.91846V6.948C8.91846 6.08604 9.26087 5.25939 9.87036 4.6499ZM7.41846 10.198V6.948C7.41846 5.68822 7.9189 4.48004 8.8097 3.58924C9.7005 2.69844 10.9087 2.198 12.1685 2.198C13.4282 2.198 14.6364 2.69844 15.5272 3.58924C16.418 4.48004 16.9185 5.68822 16.9185 6.948V10.198H17.1685C18.6872 10.198 19.9185 11.4292 19.9185 12.948V18.948C19.9185 20.4668 18.6872 21.698 17.1685 21.698H7.16846C5.64967 21.698 4.41846 20.4668 4.41846 18.948V12.948C4.41846 11.4292 5.64967 10.198 7.16846 10.198H7.41846ZM16.1685 11.698H17.1685C17.8588 11.698 18.4185 12.2576 18.4185 12.948V18.948C18.4185 19.6384 17.8588 20.198 17.1685 20.198H7.16846C6.4781 20.198 5.91846 19.6384 5.91846 18.948V12.948C5.91846 12.2576 6.4781 11.698 7.16846 11.698H8.16846H16.1685ZM12.1685 15.698C12.0304 15.698 11.9185 15.8099 11.9185 15.948C11.9185 16.0861 12.0304 16.198 12.1685 16.198C12.3065 16.198 12.4185 16.0861 12.4185 15.948C12.4185 15.8099 12.3065 15.698 12.1685 15.698ZM10.4185 15.948C10.4185 14.9815 11.202 14.198 12.1685 14.198C13.135 14.198 13.9185 14.9815 13.9185 15.948C13.9185 16.9145 13.135 17.698 12.1685 17.698C11.202 17.698 10.4185 16.9145 10.4185 15.948Z" fill="#282828"/>
</svg>
