<svg width="34" height="34" viewBox="0 0 34 34" fill="none" xmlns="http://www.w3.org/2000/svg">
<g clip-path="url(#clip0_2525_332167)">
<path d="M16.9976 33.1905C21.4685 33.1905 25.0928 29.5661 25.0928 25.0952C25.0928 20.6244 21.4685 17 16.9976 17C12.5267 17 8.90234 20.6244 8.90234 25.0952C8.90234 29.5661 12.5267 33.1905 16.9976 33.1905Z" stroke="#282828" stroke-width="1.21429" stroke-miterlimit="10"/>
<path d="M16.9976 16.9981C21.4685 16.9981 25.0928 13.3737 25.0928 8.90285C25.0928 4.43198 21.4685 0.807617 16.9976 0.807617C12.5267 0.807617 8.90234 4.43198 8.90234 8.90285C8.90234 13.3737 12.5267 16.9981 16.9976 16.9981Z" stroke="#282828" stroke-width="1.21429" stroke-miterlimit="10"/>
<path d="M25.0991 25.0928C29.57 25.0928 33.1944 21.4685 33.1944 16.9976C33.1944 12.5267 29.57 8.90234 25.0991 8.90234C20.6283 8.90234 17.0039 12.5267 17.0039 16.9976C17.0039 21.4685 20.6283 25.0928 25.0991 25.0928Z" stroke="#282828" stroke-width="1.21429" stroke-miterlimit="10"/>
<path d="M8.90383 25.0928C13.3747 25.0928 16.9991 21.4685 16.9991 16.9976C16.9991 12.5267 13.3747 8.90234 8.90383 8.90234C4.43296 8.90234 0.808594 12.5267 0.808594 16.9976C0.808594 21.4685 4.43296 25.0928 8.90383 25.0928Z" stroke="#282828" stroke-width="1.21429" stroke-miterlimit="10"/>
</g>
<defs>
<clipPath id="clip0_2525_332167">
<rect width="34" height="34" fill="white"/>
</clipPath>
</defs>
</svg>
