<svg width="34" height="39" viewBox="0 0 34 39" fill="none" xmlns="http://www.w3.org/2000/svg">
<g clip-path="url(#clip0_2525_332163)">
<path d="M17.0042 10.0781L25.11 14.7544L17.0042 19.4307L8.89844 14.7544L17.0042 10.0781Z" stroke="#282828" stroke-width="1.21429" stroke-miterlimit="10"/>
<path d="M17.0042 19.4292L8.89844 14.7529V24.1055L17.0042 28.7818V19.4292Z" stroke="#282828" stroke-width="1.21429" stroke-miterlimit="10"/>
<path d="M8.8936 14.7534L0.808594 10.0771V19.4298L8.8936 24.1061V14.7534Z" stroke="#282828" stroke-width="1.21429" stroke-miterlimit="10"/>
<path d="M17.0042 28.7837L8.89844 24.1074V33.46L17.0042 38.1363V28.7837Z" stroke="#282828" stroke-width="1.21429" stroke-miterlimit="10"/>
<path d="M8.8936 24.105L0.808594 19.4287V28.7813L8.8936 33.4576V24.105Z" stroke="#282828" stroke-width="1.21429" stroke-miterlimit="10"/>
<path d="M8.89361 5.40039L16.9994 10.0767L8.89361 14.753L0.808594 10.0767L8.89361 5.40039Z" stroke="#282828" stroke-width="1.21429" stroke-miterlimit="10"/>
<path d="M25.1097 5.40039L33.1947 10.0767L25.1097 14.753L17.0039 10.0767L25.1097 5.40039Z" stroke="#282828" stroke-width="1.21429" stroke-miterlimit="10"/>
<path d="M17.0042 0.725586L25.11 5.40189L17.0042 10.0782L8.89844 5.40189L17.0042 0.725586Z" stroke="#282828" stroke-width="1.21429" stroke-miterlimit="10"/>
<path d="M17.0039 19.4292L25.1097 14.7529V24.1055L17.0039 28.7818V19.4292Z" stroke="#282828" stroke-width="1.21429" stroke-miterlimit="10"/>
<path d="M25.1055 14.7544L33.1905 10.0781V19.4307L25.1055 24.107V14.7544Z" stroke="#282828" stroke-width="1.21429" stroke-miterlimit="10"/>
<path d="M17.0039 28.7837L25.1097 24.1074V33.46L17.0039 38.1363V28.7837Z" stroke="#282828" stroke-width="1.21429" stroke-miterlimit="10"/>
<path d="M25.1055 24.105L33.1905 19.4287V28.7813L25.1055 33.4576V24.105Z" stroke="#282828" stroke-width="1.21429" stroke-miterlimit="10"/>
</g>
<defs>
<clipPath id="clip0_2525_332163">
<rect width="34" height="38.8571" fill="white"/>
</clipPath>
</defs>
</svg>
