<svg width="34" height="34" viewBox="0 0 34 34" fill="none" xmlns="http://www.w3.org/2000/svg">
<g clip-path="url(#clip0_2525_332166)">
<path d="M8.31968 21.3225C10.2424 21.3225 12.1651 20.9092 13.6386 20.0646C15.0941 19.22 15.8308 18.1059 15.8308 16.9918C15.8308 15.8777 15.0941 14.7636 13.6386 13.919C12.1831 13.0744 10.2603 12.6611 8.31968 12.6611C6.37901 12.6611 4.47429 13.0744 3.00082 13.919C1.54532 14.7636 0.808594 15.8777 0.808594 16.9918C0.808594 18.1059 1.54532 19.22 3.00082 20.0646C4.47429 20.9092 6.39698 21.3225 8.31968 21.3225Z" stroke="#282828" stroke-width="1.21429" stroke-miterlimit="10"/>
<path d="M12.6719 8.32959C12.6719 10.2523 13.0852 12.1751 13.9297 13.6486C14.7743 15.1041 15.8883 15.8409 17.0024 15.8409C18.1165 15.8409 19.2306 15.1041 20.0752 13.6486C20.9197 12.1931 21.333 10.2703 21.333 8.32959C21.333 6.40685 20.9197 4.48418 20.0752 3.01068C19.2306 1.55515 18.1165 0.818359 17.0024 0.818359C15.8883 0.818359 14.7743 1.55515 13.9297 3.01068C13.0852 4.46621 12.6719 6.40685 12.6719 8.32959Z" stroke="#282828" stroke-width="1.21429" stroke-miterlimit="10"/>
<path d="M12.6719 25.6714C12.6719 23.7486 13.0852 21.826 13.9297 20.3525C14.7743 18.8969 15.8883 18.1602 17.0024 18.1602C18.1165 18.1602 19.2306 18.8969 20.0752 20.3525C20.9197 21.808 21.333 23.7307 21.333 25.6714C21.333 27.5941 20.9197 29.5169 20.0752 30.9904C19.2306 32.4459 18.1165 33.1827 17.0024 33.1827C15.8883 33.1827 14.7743 32.4459 13.9297 30.9904C13.0852 29.5169 12.6719 27.5941 12.6719 25.6714Z" stroke="#282828" stroke-width="1.21429" stroke-miterlimit="10"/>
<path d="M25.6752 21.3225C23.7525 21.3225 21.8298 20.9092 20.3563 20.0646C18.9008 19.22 18.1641 18.1059 18.1641 16.9918C18.1641 15.8777 18.9008 14.7636 20.3563 13.919C21.8118 13.0744 23.7345 12.6611 25.6752 12.6611C27.5979 12.6611 29.5206 13.0744 30.994 13.919C32.4495 14.7636 33.1863 15.8777 33.1863 16.9918C33.1863 18.1059 32.4495 19.22 30.994 20.0646C29.5206 20.9092 27.5979 21.3225 25.6752 21.3225Z" stroke="#282828" stroke-width="1.21429" stroke-miterlimit="10"/>
</g>
<defs>
<clipPath id="clip0_2525_332166">
<rect width="34" height="34" fill="white"/>
</clipPath>
</defs>
</svg>
