<svg width="34" height="34" viewBox="0 0 34 34" fill="none" xmlns="http://www.w3.org/2000/svg">
<g clip-path="url(#clip0_2525_332165)">
<path d="M22.4026 11.6035C22.4026 13.5824 20.7835 15.2014 18.8047 15.2014" stroke="#282828" stroke-width="1.21429" stroke-miterlimit="10"/>
<path d="M15.207 18.7981C15.207 16.8192 16.8261 15.2002 18.8049 15.2002" stroke="#282828" stroke-width="1.21429" stroke-miterlimit="10"/>
<path d="M29.594 4.40723C29.594 6.38606 27.9749 8.00511 25.9961 8.00511" stroke="#282828" stroke-width="1.21429" stroke-miterlimit="10"/>
<path d="M8.00804 25.9954C8.00804 27.9742 6.38899 29.5932 4.41016 29.5932" stroke="#282828" stroke-width="1.21429" stroke-miterlimit="10"/>
<path d="M8.01172 25.9953C8.01172 24.0165 9.63077 22.3975 11.6096 22.3975" stroke="#282828" stroke-width="1.21429" stroke-miterlimit="10"/>
<path d="M0.808594 33.1907C0.808594 31.2118 2.42764 29.5928 4.40648 29.5928" stroke="#282828" stroke-width="1.21429" stroke-miterlimit="10"/>
<path d="M29.5898 4.40745C29.5898 2.42862 31.2089 0.80957 33.1877 0.80957" stroke="#282828" stroke-width="1.21429" stroke-miterlimit="10"/>
<path d="M22.4062 11.6037C22.4062 9.62491 24.0253 8.00586 26.0041 8.00586" stroke="#282828" stroke-width="1.21429" stroke-miterlimit="10"/>
<path d="M15.2034 18.7998C15.2034 20.7786 13.5843 22.3977 11.6055 22.3977" stroke="#282828" stroke-width="1.21429" stroke-miterlimit="10"/>
<path d="M26.0041 15.2002C26.0041 17.179 24.3851 18.7981 22.4062 18.7981" stroke="#282828" stroke-width="1.21429" stroke-miterlimit="10"/>
<path d="M18.8047 22.3977C18.8047 20.4189 20.4237 18.7998 22.4026 18.7998" stroke="#282828" stroke-width="1.21429" stroke-miterlimit="10"/>
<path d="M33.1877 8.00586C33.1877 9.9847 31.5687 11.6037 29.5898 11.6037" stroke="#282828" stroke-width="1.21429" stroke-miterlimit="10"/>
<path d="M11.6096 29.5928C11.6096 31.5716 9.99055 33.1907 8.01172 33.1907" stroke="#282828" stroke-width="1.21429" stroke-miterlimit="10"/>
<path d="M11.6055 29.593C11.6055 27.6142 13.2245 25.9951 15.2034 25.9951" stroke="#282828" stroke-width="1.21429" stroke-miterlimit="10"/>
<path d="M25.9961 15.2014C25.9961 13.2226 27.6151 11.6035 29.594 11.6035" stroke="#282828" stroke-width="1.21429" stroke-miterlimit="10"/>
<path d="M18.8049 22.3975C18.8049 24.3763 17.1859 25.9953 15.207 25.9953" stroke="#282828" stroke-width="1.21429" stroke-miterlimit="10"/>
<path d="M18.8049 8.00586C18.8049 9.9847 17.1859 11.6037 15.207 11.6037" stroke="#282828" stroke-width="1.21429" stroke-miterlimit="10"/>
<path d="M11.6055 15.2014C11.6055 13.2226 13.2245 11.6035 15.2034 11.6035" stroke="#282828" stroke-width="1.21429" stroke-miterlimit="10"/>
<path d="M26.0041 0.80957C26.0041 2.78841 24.3851 4.40745 22.4062 4.40745" stroke="#282828" stroke-width="1.21429" stroke-miterlimit="10"/>
<path d="M4.40648 22.3975C4.40648 24.3763 2.78743 25.9953 0.808594 25.9953" stroke="#282828" stroke-width="1.21429" stroke-miterlimit="10"/>
<path d="M4.41016 22.3974C4.41016 20.4186 6.0292 18.7996 8.00804 18.7996" stroke="#282828" stroke-width="1.21429" stroke-miterlimit="10"/>
<path d="M18.8047 8.00511C18.8047 6.02627 20.4237 4.40723 22.4026 4.40723" stroke="#282828" stroke-width="1.21429" stroke-miterlimit="10"/>
<path d="M11.6096 15.2002C11.6096 17.179 9.99055 18.7981 8.01172 18.7981" stroke="#282828" stroke-width="1.21429" stroke-miterlimit="10"/>
<path d="M29.594 18.7998C29.594 20.7786 27.9749 22.3977 25.9961 22.3977" stroke="#282828" stroke-width="1.21429" stroke-miterlimit="10"/>
<path d="M22.4062 25.9953C22.4062 24.0165 24.0253 22.3975 26.0041 22.3975" stroke="#282828" stroke-width="1.21429" stroke-miterlimit="10"/>
<path d="M15.207 33.1907C15.207 31.2118 16.8261 29.5928 18.8049 29.5928" stroke="#282828" stroke-width="1.21429" stroke-miterlimit="10"/>
<path d="M29.5898 18.7981C29.5898 16.8192 31.2089 15.2002 33.1877 15.2002" stroke="#282828" stroke-width="1.21429" stroke-miterlimit="10"/>
<path d="M22.4026 25.9951C22.4026 27.974 20.7835 29.593 18.8047 29.593" stroke="#282828" stroke-width="1.21429" stroke-miterlimit="10"/>
<path d="M15.2034 4.40723C15.2034 6.38606 13.5843 8.00511 11.6055 8.00511" stroke="#282828" stroke-width="1.21429" stroke-miterlimit="10"/>
<path d="M8.01172 11.6037C8.01172 9.62491 9.63077 8.00586 11.6096 8.00586" stroke="#282828" stroke-width="1.21429" stroke-miterlimit="10"/>
<path d="M0.808594 18.7981C0.808594 16.8192 2.42764 15.2002 4.40648 15.2002" stroke="#282828" stroke-width="1.21429" stroke-miterlimit="10"/>
<path d="M15.207 4.40745C15.207 2.42862 16.8261 0.80957 18.8049 0.80957" stroke="#282828" stroke-width="1.21429" stroke-miterlimit="10"/>
<path d="M8.00804 11.6035C8.00804 13.5824 6.38899 15.2014 4.41016 15.2014" stroke="#282828" stroke-width="1.21429" stroke-miterlimit="10"/>
<path d="M33.1877 22.3975C33.1877 24.3763 31.5687 25.9953 29.5898 25.9953" stroke="#282828" stroke-width="1.21429" stroke-miterlimit="10"/>
<path d="M25.9961 29.593C25.9961 27.6142 27.6151 25.9951 29.594 25.9951" stroke="#282828" stroke-width="1.21429" stroke-miterlimit="10"/>
<path d="M26.0041 29.5928C26.0041 31.5716 24.3851 33.1907 22.4062 33.1907" stroke="#282828" stroke-width="1.21429" stroke-miterlimit="10"/>
<path d="M11.6096 0.80957C11.6096 2.78841 9.99055 4.40745 8.01172 4.40745" stroke="#282828" stroke-width="1.21429" stroke-miterlimit="10"/>
<path d="M4.41016 8.00511C4.41016 6.02627 6.0292 4.40723 8.00804 4.40723" stroke="#282828" stroke-width="1.21429" stroke-miterlimit="10"/>
<path d="M4.40648 8.00586C4.40648 9.9847 2.78743 11.6037 0.808594 11.6037" stroke="#282828" stroke-width="1.21429" stroke-miterlimit="10"/>
<path d="M29.5898 33.1907C29.5898 31.2118 31.2089 29.5928 33.1877 29.5928" stroke="#282828" stroke-width="1.21429" stroke-miterlimit="10"/>
<path d="M0.808594 4.40745C0.808594 2.42862 2.42764 0.80957 4.40648 0.80957" stroke="#282828" stroke-width="1.21429" stroke-miterlimit="10"/>
</g>
<defs>
<clipPath id="clip0_2525_332165">
<rect width="34" height="34" fill="white"/>
</clipPath>
</defs>
</svg>
