<svg width="24" height="24" viewBox="0 0 24 24" fill="none" xmlns="http://www.w3.org/2000/svg">
<path d="M19 8.89606H9C7.89543 8.89606 7 9.79149 7 10.8961V16.8961C7 18.0006 7.89543 18.8961 9 18.8961H19C20.1046 18.8961 21 18.0006 21 16.8961V10.8961C21 9.79149 20.1046 8.89606 19 8.89606Z" stroke="#282828" stroke-width="1.5" stroke-linecap="round" stroke-linejoin="round"/>
<path d="M14 15.8961C15.1046 15.8961 16 15.0006 16 13.8961C16 12.7915 15.1046 11.8961 14 11.8961C12.8954 11.8961 12 12.7915 12 13.8961C12 15.0006 12.8954 15.8961 14 15.8961Z" stroke="#282828" stroke-width="1.5" stroke-linecap="round" stroke-linejoin="round"/>
<path d="M17 8.89606V6.89606C17 6.36562 16.7893 5.85692 16.4142 5.48184C16.0391 5.10677 15.5304 4.89606 15 4.89606H5C4.46957 4.89606 3.96086 5.10677 3.58579 5.48184C3.21071 5.85692 3 6.36562 3 6.89606V12.8961C3 13.4265 3.21071 13.9352 3.58579 14.3103C3.96086 14.6853 4.46957 14.8961 5 14.8961H7" stroke="#282828" stroke-width="1.5" stroke-linecap="round" stroke-linejoin="round"/>
</svg>
