<svg width="24" height="24" viewBox="0 0 24 24" fill="none" xmlns="http://www.w3.org/2000/svg">
<path fill-rule="evenodd" clip-rule="evenodd" d="M4.96582 10.2124C4.96582 7.37213 7.26831 5.06964 10.1086 5.06964C12.9488 5.06964 15.2513 7.37213 15.2513 10.2124C15.2513 13.0527 12.9488 15.3551 10.1086 15.3551C7.26831 15.3551 4.96582 13.0527 4.96582 10.2124ZM10.1086 3.56964C6.43988 3.56964 3.46582 6.5437 3.46582 10.2124C3.46582 13.8811 6.43988 16.8551 10.1086 16.8551C11.6727 16.8551 13.1106 16.3146 14.2455 15.41L18.8383 20.0028C19.1312 20.2957 19.6061 20.2957 19.8989 20.0028C20.1918 19.7099 20.1918 19.235 19.8989 18.9421L15.3062 14.3493C16.2107 13.2144 16.7513 11.7765 16.7513 10.2124C16.7513 6.5437 13.7773 3.56964 10.1086 3.56964Z" fill="#282828"/>
</svg>
