<svg width="24" height="24" viewBox="0 0 24 24" fill="none" xmlns="http://www.w3.org/2000/svg">
<path fill-rule="evenodd" clip-rule="evenodd" d="M21.33 2.43259C21.3117 2.40934 21.2919 2.38701 21.2706 2.36575C21.1428 2.23793 20.9762 2.1632 20.8028 2.14867C20.7578 2.14491 20.7123 2.14519 20.6669 2.14965C20.5995 2.15623 20.5327 2.17193 20.4687 2.19675L2.48557 8.69066C2.46601 8.69773 2.44676 8.7056 2.42786 8.71426C2.20156 8.81796 2.00979 8.98446 1.87535 9.19396C1.7409 9.40346 1.66943 9.64715 1.66943 9.89608C1.66943 10.145 1.7409 10.3887 1.87535 10.5982C2.00701 10.8034 2.19366 10.9673 2.41387 11.0714L9.18129 14.4551L12.565 21.2225C12.6691 21.4427 12.833 21.6294 13.0382 21.761C13.2477 21.8955 13.4914 21.9669 13.7403 21.9669C13.9892 21.9669 14.2329 21.8955 14.4424 21.761C14.6519 21.6266 14.8184 21.4348 14.9221 21.2085C14.9308 21.1896 14.9387 21.1704 14.9457 21.1508L21.4412 3.16342C21.4549 3.12736 21.4657 3.09046 21.4737 3.05307C21.519 2.84034 21.4711 2.61173 21.33 2.43259ZM17.8319 4.74373L3.4788 9.9268L9.59217 12.9835L17.8319 4.74373ZM10.6529 14.0441L18.8927 5.80424L13.7096 20.1576L10.6529 14.0441Z" fill="#282828"/>
</svg>
