<svg width="24" height="24" viewBox="0 0 24 24" fill="none" xmlns="http://www.w3.org/2000/svg">
<path fill-rule="evenodd" clip-rule="evenodd" d="M11.75 7.75C11.75 6.64543 12.6454 5.75 13.75 5.75C14.8546 5.75 15.75 6.64543 15.75 7.75C15.75 8.85457 14.8546 9.75 13.75 9.75C12.6454 9.75 11.75 8.85457 11.75 7.75ZM10.3305 8.5C10.6739 10.0726 12.0744 11.25 13.75 11.25C15.4256 11.25 16.8261 10.0726 17.1695 8.5H21C21.4142 8.5 21.75 8.16421 21.75 7.75C21.75 7.33579 21.4142 7 21 7H17.1695C16.8261 5.42741 15.4256 4.25 13.75 4.25C12.0744 4.25 10.6739 5.42741 10.3305 7H3C2.58579 7 2.25 7.33579 2.25 7.75C2.25 8.16421 2.58579 8.5 3 8.5H10.3305ZM5.75 15.75C5.75 14.6454 6.64543 13.75 7.75 13.75C8.85457 13.75 9.75 14.6454 9.75 15.75C9.75 16.8546 8.85457 17.75 7.75 17.75C6.64543 17.75 5.75 16.8546 5.75 15.75ZM7.75 19.25C6.07444 19.25 4.67388 18.0726 4.33054 16.5H3C2.58579 16.5 2.25 16.1642 2.25 15.75C2.25 15.3358 2.58579 15 3 15H4.33054C4.67388 13.4274 6.07444 12.25 7.75 12.25C9.42556 12.25 10.8261 13.4274 11.1695 15H21C21.4142 15 21.75 15.3358 21.75 15.75C21.75 16.1642 21.4142 16.5 21 16.5H11.1695C10.8261 18.0726 9.42556 19.25 7.75 19.25Z" fill="#282828"/>
</svg>
