<svg width="24" height="24" viewBox="0 0 24 24" fill="none" xmlns="http://www.w3.org/2000/svg">
<path fill-rule="evenodd" clip-rule="evenodd" d="M17.6885 3.64606C16.4458 3.64606 15.4385 4.65342 15.4385 5.89606C15.4385 6.22241 15.508 6.53254 15.6329 6.81245C15.6407 6.82552 15.6481 6.83889 15.6552 6.85258C15.6684 6.87835 15.6801 6.90454 15.6901 6.93102C16.0647 7.65289 16.819 8.14606 17.6885 8.14606C18.9311 8.14606 19.9385 7.1387 19.9385 5.89606C19.9385 4.65342 18.9311 3.64606 17.6885 3.64606ZM13.9385 5.89606C13.9385 6.21941 13.9794 6.5332 14.0564 6.83253L8.66231 9.61128C7.97672 8.72025 6.89966 8.14606 5.68848 8.14606C3.61741 8.14606 1.93848 9.82499 1.93848 11.8961C1.93848 13.9671 3.61741 15.6461 5.68848 15.6461C6.89966 15.6461 7.97674 15.0719 8.66233 14.1808L14.0564 16.9596C13.9794 17.2589 13.9385 17.5727 13.9385 17.8961C13.9385 19.9671 15.6174 21.6461 17.6885 21.6461C19.7595 21.6461 21.4385 19.9671 21.4385 17.8961C21.4385 15.825 19.7595 14.1461 17.6885 14.1461C16.4773 14.1461 15.4002 14.7203 14.7146 15.6113L9.32059 12.8326C9.39755 12.5332 9.43848 12.2194 9.43848 11.8961C9.43848 11.5727 9.39755 11.2589 9.32058 10.9595L14.7146 8.18078C15.4002 9.07184 16.4773 9.64606 17.6885 9.64606C19.7595 9.64606 21.4385 7.96712 21.4385 5.89606C21.4385 3.82499 19.7595 2.14606 17.6885 2.14606C15.6174 2.14606 13.9385 3.82499 13.9385 5.89606ZM7.74431 12.8118C7.8691 12.5321 7.93848 12.2222 7.93848 11.8961C7.93848 11.5699 7.86909 11.26 7.74426 10.9802C7.73638 10.967 7.72885 10.9534 7.7217 10.9395C7.70832 10.9135 7.6966 10.8872 7.68651 10.8605C7.31178 10.1389 6.55769 9.64606 5.68848 9.64606C4.44584 9.64606 3.43848 10.6534 3.43848 11.8961C3.43848 13.1387 4.44584 14.1461 5.68848 14.1461C6.55766 14.1461 7.31174 13.6532 7.68648 12.9317C7.69658 12.905 7.7083 12.8786 7.7217 12.8526C7.72887 12.8387 7.73641 12.8251 7.74431 12.8118ZM15.633 16.9796C15.6407 16.9665 15.6481 16.9532 15.6552 16.9395C15.6684 16.9138 15.68 16.8876 15.6901 16.8612C16.0647 16.1393 16.819 15.6461 17.6885 15.6461C18.9311 15.6461 19.9385 16.6534 19.9385 17.8961C19.9385 19.1387 18.9311 20.1461 17.6885 20.1461C16.4458 20.1461 15.4385 19.1387 15.4385 17.8961C15.4385 17.5697 15.508 17.2595 15.633 16.9796Z" fill="#282828"/>
</svg>
