<svg width="24" height="24" viewBox="0 0 24 24" fill="none" xmlns="http://www.w3.org/2000/svg">
<path d="M9.22022 11.8961C8.42909 11.8961 7.65573 12.1307 6.99794 12.5702C6.34014 13.0097 5.82745 13.6344 5.5247 14.3653C5.22195 15.0962 5.14273 15.9005 5.29708 16.6764C5.45142 17.4523 5.83238 18.1651 6.39179 18.7245C6.9512 19.2839 7.66393 19.6649 8.43986 19.8192C9.21578 19.9735 10.02 19.8943 10.751 19.5916C11.4819 19.2888 12.1066 18.7761 12.5461 18.1183C12.9856 17.4605 13.2202 16.6872 13.2202 15.8961V3.89606C13.2202 5.22214 13.747 6.49391 14.6847 7.43159C15.6224 8.36927 16.8941 8.89606 18.2202 8.89606" stroke="#282828" stroke-width="1.5" stroke-linecap="round" stroke-linejoin="round"/>
</svg>
