<svg width="24" height="24" viewBox="0 0 24 24" fill="none" xmlns="http://www.w3.org/2000/svg">
<path fill-rule="evenodd" clip-rule="evenodd" d="M2 4.25C1.58579 4.25 1.25 4.58579 1.25 5C1.25 5.41421 1.58579 5.75 2 5.75H12.25V6V11V16.25H9.64648C9.32002 15.0957 8.25878 14.25 7 14.25C5.74122 14.25 4.67998 15.0957 4.35352 16.25H3.75V13C3.75 12.5858 3.41421 12.25 3 12.25C2.58579 12.25 2.25 12.5858 2.25 13V17C2.25 17.4142 2.58579 17.75 3 17.75H4.35352C4.67998 18.9043 5.74122 19.75 7 19.75C8.25878 19.75 9.32002 18.9043 9.64648 17.75H13H14.3535C14.68 18.9043 15.7412 19.75 17 19.75C18.2588 19.75 19.32 18.9043 19.6465 17.75H21C21.4142 17.75 21.75 17.4142 21.75 17V11.0123C21.7512 10.9413 21.7424 10.8696 21.7229 10.7994C21.7035 10.7295 21.6743 10.6637 21.6368 10.6036L18.6431 5.61413C18.5076 5.38822 18.2634 5.25 18 5.25H13.75V5C13.75 4.58579 13.4142 4.25 13 4.25H2ZM19.6465 16.25H20.25V11.75H13.75V16.25H14.3535C14.68 15.0957 15.7412 14.25 17 14.25C18.2588 14.25 19.32 15.0957 19.6465 16.25ZM15.75 17C15.75 16.3096 16.3096 15.75 17 15.75C17.6904 15.75 18.25 16.3096 18.25 17C18.25 17.6904 17.6904 18.25 17 18.25C16.3096 18.25 15.75 17.6904 15.75 17ZM5.75 17C5.75 17.6904 6.30964 18.25 7 18.25C7.69036 18.25 8.25 17.6904 8.25 17C8.25 16.3096 7.69036 15.75 7 15.75C6.30964 15.75 5.75 16.3096 5.75 17ZM13.75 10.25V6.75H17.5754L19.6754 10.25H13.75Z" fill="#282828"/>
</svg>
