<svg width="24" height="24" viewBox="0 0 24 24" fill="none" xmlns="http://www.w3.org/2000/svg">
<path d="M21.6362 3.90607C20.6362 4.39607 19.6562 4.59507 18.6362 4.89607C17.5152 3.63107 15.8532 3.56107 14.2562 4.15907C12.6592 4.75707 11.6132 6.21907 11.6362 7.89607V8.89607C8.39123 8.97907 5.50123 7.50107 3.63623 4.89607C3.63623 4.89607 -0.54577 12.3291 7.63623 15.8961C5.76423 17.1431 3.89723 17.9841 1.63623 17.8961C4.94423 19.6991 8.54923 20.3191 11.6702 19.4131C15.2502 18.3731 18.1922 15.6901 19.3212 11.6711C19.658 10.4487 19.8253 9.18593 19.8182 7.91807C19.8162 7.66907 21.3282 5.14607 21.6362 3.90507V3.90607Z" stroke="#282828" stroke-width="1.5" stroke-linecap="round" stroke-linejoin="round"/>
</svg>
