<svg width="24" height="24" viewBox="0 0 24 24" fill="none" xmlns="http://www.w3.org/2000/svg">
<path fill-rule="evenodd" clip-rule="evenodd" d="M8.33398 8C8.33398 6.20507 9.78906 4.75 11.584 4.75C13.3789 4.75 14.834 6.20507 14.834 8C14.834 9.79493 13.3789 11.25 11.584 11.25C9.78906 11.25 8.33398 9.79493 8.33398 8ZM11.584 3.25C8.96063 3.25 6.83398 5.37665 6.83398 8C6.83398 10.6234 8.96063 12.75 11.584 12.75C14.2073 12.75 16.334 10.6234 16.334 8C16.334 5.37665 14.2073 3.25 11.584 3.25ZM7.28589 16.598C7.89538 15.9885 8.72203 15.6461 9.58398 15.6461H13.584C14.4459 15.6461 15.2726 15.9885 15.8821 16.598C16.4916 17.2075 16.834 18.0341 16.834 18.8961V20.8961C16.834 21.3103 17.1698 21.6461 17.584 21.6461C17.9982 21.6461 18.334 21.3103 18.334 20.8961V18.8961C18.334 17.6363 17.8335 16.4281 16.9427 15.5373C16.0519 14.6465 14.8438 14.1461 13.584 14.1461H9.58398C8.32421 14.1461 7.11602 14.6465 6.22523 15.5373C5.33443 16.4281 4.83398 17.6363 4.83398 18.8961V20.8961C4.83398 21.3103 5.16977 21.6461 5.58398 21.6461C5.9982 21.6461 6.33398 21.3103 6.33398 20.8961V18.8961C6.33398 18.0341 6.67639 17.2075 7.28589 16.598Z" fill="#282828"/>
</svg>
