<svg width="24" height="24" viewBox="0 0 24 24" fill="none" xmlns="http://www.w3.org/2000/svg">
<path fill-rule="evenodd" clip-rule="evenodd" d="M6.42871 3.14606C5.69937 3.14606 4.99989 3.43579 4.48417 3.95151C3.96844 4.46724 3.67871 5.16671 3.67871 5.89606V17.8961C3.67871 18.6254 3.96844 19.3249 4.48417 19.8406C4.99989 20.3563 5.69937 20.6461 6.42871 20.6461H18.4287C18.8928 20.6461 19.338 20.4617 19.6661 20.1335C19.9943 19.8053 20.1787 19.3602 20.1787 18.8961V16.6461H20.4287C20.8429 16.6461 21.1787 16.3103 21.1787 15.8961V11.8961C21.1787 11.4818 20.8429 11.1461 20.4287 11.1461H20.1787V8.89606C20.1787 8.43193 19.9943 7.98681 19.6661 7.65862C19.338 7.33043 18.8928 7.14606 18.4287 7.14606H18.1787V4.89606C18.1787 4.43193 17.9943 3.98681 17.6661 3.65862C17.338 3.33043 16.8928 3.14606 16.4287 3.14606H6.42871ZM18.6787 11.1461V8.89606C18.6787 8.82975 18.6524 8.76616 18.6055 8.71928C18.5586 8.6724 18.495 8.64606 18.4287 8.64606H17.4287H6.42871C5.99008 8.64606 5.56226 8.54127 5.17871 8.34555V17.8961C5.17871 18.2276 5.31041 18.5455 5.54483 18.7799C5.77925 19.0144 6.09719 19.1461 6.42871 19.1461H18.4287C18.495 19.1461 18.5586 19.1197 18.6055 19.0728C18.6524 19.026 18.6787 18.9624 18.6787 18.8961V16.6461H16.4287C15.6994 16.6461 14.9999 16.3563 14.4842 15.8406C13.9684 15.3249 13.6787 14.6254 13.6787 13.8961C13.6787 13.1667 13.9684 12.4672 14.4842 11.9515C14.9999 11.4358 15.6994 11.1461 16.4287 11.1461H18.6787ZM19.4287 15.1461H19.6787V12.6461H19.4287H16.4287C16.0972 12.6461 15.7792 12.7778 15.5448 13.0122C15.3104 13.2466 15.1787 13.5645 15.1787 13.8961C15.1787 14.2276 15.3104 14.5455 15.5448 14.7799C15.7792 15.0144 16.0972 15.1461 16.4287 15.1461H19.4287ZM5.54483 6.77994C5.31041 6.54552 5.17871 6.22758 5.17871 5.89606C5.17871 5.56454 5.31041 5.24659 5.54483 5.01217C5.77925 4.77775 6.09719 4.64606 6.42871 4.64606H16.4287C16.495 4.64606 16.5586 4.6724 16.6055 4.71928C16.6524 4.76616 16.6787 4.82975 16.6787 4.89606V7.14606H6.42871C6.09719 7.14606 5.77925 7.01436 5.54483 6.77994Z" fill="#282828"/>
</svg>
