<svg width="24" height="24" viewBox="0 0 24 24" fill="none" xmlns="http://www.w3.org/2000/svg">
<path fill-rule="evenodd" clip-rule="evenodd" d="M11.9902 2.21826C11.499 2.21826 11.0167 2.34984 10.5935 2.59933C10.1727 2.84745 9.82557 3.20318 9.58785 3.62988L2.4913 15.8739C2.47381 15.9041 2.45845 15.9355 2.44532 15.9678C2.28024 16.3742 2.21478 16.8142 2.25441 17.2511C2.29403 17.6879 2.43759 18.109 2.6731 18.4791C2.9086 18.8492 3.22923 19.1575 3.6082 19.3785C3.98717 19.5994 4.4135 19.7264 4.85157 19.749C4.88328 19.7507 4.91463 19.7503 4.9455 19.7481C4.96356 19.7494 4.9818 19.75 5.00019 19.75H19.0002L19.0055 19.75C19.4541 19.7468 19.8952 19.634 20.2902 19.4212C20.6853 19.2084 21.0222 18.9022 21.2717 18.5293C21.5212 18.1564 21.6757 17.7281 21.7217 17.2818C21.7677 16.8355 21.7037 16.3847 21.5355 15.9687C21.5222 15.9361 21.5067 15.9044 21.4891 15.8739L14.3925 3.62986C14.1548 3.20317 13.8077 2.84745 13.3868 2.59933C12.9637 2.34984 12.4814 2.21826 11.9902 2.21826ZM5.00019 18.25C4.98162 18.25 4.96321 18.2507 4.94499 18.252L4.92881 18.251C4.72967 18.2407 4.53589 18.183 4.36363 18.0826C4.19137 17.9822 4.04564 17.842 3.93859 17.6738C3.83154 17.5055 3.76629 17.3142 3.74827 17.1156C3.73166 16.9324 3.7557 16.748 3.81844 16.5755L10.8891 4.37611L10.8964 4.36311C11.0045 4.16773 11.163 4.00488 11.3553 3.89147C11.5477 3.77807 11.7669 3.71826 11.9902 3.71826C12.2135 3.71826 12.4327 3.77807 12.625 3.89147C12.8174 4.00488 12.9758 4.16773 13.0839 4.36311L13.0913 4.37611L20.1616 16.5749C20.2256 16.7517 20.2489 16.9408 20.2296 17.1281C20.2087 17.331 20.1385 17.5257 20.0251 17.6952C19.9116 17.8647 19.7585 18.0039 19.5789 18.1006C19.4 18.1969 19.2004 18.2482 18.9972 18.25H5.00019ZM12.7502 9.00003C12.7502 8.58582 12.4144 8.25003 12.0002 8.25003C11.586 8.25003 11.2502 8.58582 11.2502 9.00003V11C11.2502 11.4142 11.586 11.75 12.0002 11.75C12.4144 11.75 12.7502 11.4142 12.7502 11V9.00003ZM12.7502 15C12.7502 14.5858 12.4144 14.25 12.0002 14.25C11.586 14.25 11.2502 14.5858 11.2502 15V15.01C11.2502 15.4242 11.586 15.76 12.0002 15.76C12.4144 15.76 12.7502 15.4242 12.7502 15.01V15Z" fill="#282828"/>
</svg>
